<?xml version="1.0" standalone="no"?>
<!DOCTYPE svg PUBLIC "-//W3C//DTD SVG 20010904//EN"
 "http://www.w3.org/TR/2001/REC-SVG-20010904/DTD/svg10.dtd">
<svg version="1.0" xmlns="http://www.w3.org/2000/svg"
 width="416.000000pt" height="416.000000pt" viewBox="0 0 416.000000 416.000000"
 preserveAspectRatio="xMidYMid meet">

<g transform="translate(0.000000,416.000000) scale(0.100000,-0.100000)"
fill="#000000" stroke="none">
<path d="M2995 3581 c-34 -7 -30 -8 30 -8 57 0 83 -6 135 -30 176 -81 349
-270 407 -443 l21 -65 -4 90 c-8 134 -34 366 -44 385 -5 9 -15 22 -23 28 -29
24 -441 58 -522 43z"/>
<path d="M2952 3523 c2 -22 9 -29 28 -30 25 -3 25 -3 3 7 -25 10 -31 35 -10
43 7 3 4 6 -6 6 -14 1 -18 -5 -15 -26z"/>
<path d="M3130 3530 c8 -5 20 -10 25 -10 6 0 3 5 -5 10 -8 5 -19 10 -25 10 -5
0 -3 -5 5 -10z"/>
<path d="M2689 3504 c-25 -30 28 -73 55 -43 8 9 8 10 -1 5 -16 -9 -43 3 -43
19 0 21 19 28 35 15 9 -7 15 -8 15 -2 0 9 -22 22 -40 22 -4 0 -13 -7 -21 -16z"/>
<path d="M3200 3496 c0 -3 9 -10 20 -16 11 -6 20 -8 20 -6 0 3 -9 10 -20 16
-11 6 -20 8 -20 6z"/>
<path d="M2537 3451 c-21 -10 -37 -20 -35 -23 5 -8 -23 -38 -35 -38 -6 0 -2 7
9 15 29 22 9 18 -44 -9 -234 -120 -525 -410 -744 -741 -84 -126 -83 -120 -31
-151 17 -11 17 -12 0 -50 -37 -79 -109 -194 -118 -188 -5 3 -9 7 -9 10 0 3 4
3 9 0 13 -8 12 96 0 114 -9 13 -10 12 -5 -3 5 -15 0 -16 -52 -10 -145 20 -362
2 -362 -29 0 -4 -6 -8 -13 -8 -8 0 -22 -9 -32 -20 -10 -11 -25 -20 -34 -20 -9
0 -29 -14 -44 -31 -15 -18 -31 -28 -38 -23 -7 4 -9 3 -5 -4 6 -11 -53 -78 -66
-74 -8 2 -12 -15 -8 -33 1 -5 -2 -7 -6 -3 -4 5 -12 -2 -18 -13 -6 -12 -15 -21
-19 -20 -5 1 -15 -6 -24 -16 -8 -10 -11 -11 -7 -3 4 9 3 12 -2 7 -5 -5 -9 -14
-10 -20 -4 -41 -25 -70 -37 -49 -2 4 -3 2 -1 -5 1 -6 -7 -19 -18 -30 -11 -10
-26 -30 -34 -45 -8 -16 -21 -28 -29 -28 -8 0 -15 -4 -15 -8 0 -5 -9 -19 -20
-32 -11 -12 -17 -27 -13 -33 4 -6 0 -8 -10 -4 -12 4 -14 2 -10 -10 5 -12 2
-15 -9 -10 -11 4 -18 -2 -22 -19 -4 -13 -13 -24 -22 -24 -8 0 -12 -4 -9 -10 3
-5 2 -10 -4 -10 -6 0 -18 -14 -26 -31 -10 -18 -22 -29 -30 -25 -15 5 -35 -15
-58 -59 -12 -23 -16 -25 -17 -11 0 23 55 120 113 197 173 232 411 543 434 567
7 8 18 22 24 33 5 11 14 17 20 14 5 -4 9 -3 8 2 -4 24 2 35 18 29 10 -4 14 -4
10 0 -4 4 3 19 15 32 21 23 20 23 -15 -3 -80 -60 -157 -153 -499 -605 -90
-119 -151 -228 -162 -291 -9 -52 24 -93 68 -85 39 8 86 39 159 106 32 29 60
50 63 47 3 -2 -13 -25 -35 -51 -62 -72 -129 -169 -152 -221 -24 -55 -19 -91
16 -107 38 -17 98 26 264 186 205 199 262 240 358 253 45 6 46 6 39 -18 -18
-58 -18 -78 5 -118 l22 -40 -102 -110 -102 -110 16 -30 c8 -17 15 -37 15 -46
0 -8 7 -15 15 -15 55 0 164 -99 209 -189 15 -28 26 -53 26 -56 0 -3 0 -8 0
-11 0 -4 6 -1 13 5 10 8 19 7 33 -4 37 -28 57 -17 159 85 l100 100 40 -20 c51
-26 58 -26 133 10 35 17 66 30 68 30 8 0 25 -53 35 -108 10 -53 10 -54 -28
-100 -21 -26 -94 -106 -163 -178 -168 -175 -219 -252 -192 -294 8 -13 6 -24
-9 -46 -42 -64 -7 -124 63 -109 76 17 136 58 453 310 226 181 345 302 395 400
19 39 56 96 81 129 54 67 94 137 103 181 4 20 -2 13 -21 -24 -44 -91 -227
-266 -434 -416 -22 -16 -62 -48 -87 -71 -26 -22 -69 -57 -97 -77 -27 -21 -59
-44 -70 -53 -130 -100 -192 -142 -254 -170 -77 -35 -96 -41 -86 -24 10 17 105
61 115 55 6 -4 10 -2 10 3 0 5 10 13 23 19 12 6 74 52 137 104 63 51 192 154
285 230 94 75 186 152 206 171 19 18 55 51 80 74 60 56 95 96 113 133 23 43
20 50 -6 16 -58 -77 -222 -225 -249 -225 -7 0 -9 -3 -6 -6 6 -6 -35 -44 -48
-44 -15 0 -74 -48 -67 -55 4 -5 1 -5 -6 -1 -7 4 -24 -2 -39 -14 -20 -16 -28
-18 -35 -8 -11 19 -10 28 5 23 7 -2 30 33 57 86 47 95 50 119 38 286 -2 35 2
47 27 74 34 35 267 199 284 199 6 0 11 4 11 9 0 5 7 11 16 13 13 2 11 9 -10
41 l-26 38 25 11 c14 6 27 9 30 7 2 -3 22 -42 43 -87 l37 -83 63 38 c129 78
311 222 434 344 70 69 128 131 128 137 0 7 5 11 12 9 7 -1 12 4 13 11 0 8 14
25 30 39 17 14 23 22 15 17 -8 -4 2 12 21 36 70 87 212 335 223 391 2 8 6 21
9 29 13 33 29 107 32 150 4 42 3 43 -11 25 -31 -43 -45 -56 -54 -50 -5 3 -7
12 -4 19 3 7 -2 19 -10 26 -9 7 -13 17 -9 24 3 6 -4 2 -18 -9 -17 -14 -20 -15
-10 -3 7 9 10 22 7 27 -4 5 -1 13 5 17 8 5 9 3 4 -6 -5 -9 -4 -11 3 -6 8 5 9
13 3 24 -5 9 -5 26 0 37 18 46 6 36 -16 -14 -14 -29 -22 -57 -19 -62 3 -5 0
-8 -7 -7 -16 4 -19 -24 -4 -35 6 -5 1 -7 -12 -4 -15 3 -31 -5 -55 -32 l-33
-36 33 29 c17 17 32 25 32 18 0 -15 -85 -118 -92 -112 -3 3 -14 -2 -24 -11
-11 -9 -27 -15 -36 -14 -10 2 -20 0 -23 -5 -7 -12 -241 -12 -305 0 -30 5 -93
28 -139 51 -109 54 -191 134 -246 242 -39 78 -39 79 -39 195 -1 103 2 124 24
172 13 30 44 78 67 107 24 29 42 53 41 52 -2 0 -20 -9 -41 -18z m-120 -500
c-8 -43 -19 -63 -51 -95 -50 -50 -83 -76 -96 -76 -6 0 -10 -4 -10 -10 0 -5 -5
-10 -11 -10 -6 0 -25 -11 -41 -25 -16 -14 -34 -23 -39 -19 -5 3 -9 1 -9 -4 0
-4 -23 -19 -51 -31 -41 -19 -55 -21 -75 -12 -31 14 -31 41 0 106 71 153 210
313 323 372 l58 30 6 -86 c3 -47 1 -110 -4 -140z m-385 82 c-52 -62 -122 -128
-99 -94 25 37 121 141 130 141 5 0 -9 -21 -31 -47z m455 -199 c-17 -17 96 -90
285 -182 64 -31 118 -64 120 -72 5 -16 -32 -90 -44 -90 -4 0 -19 -11 -34 -25
-15 -14 -32 -25 -39 -25 -7 0 -20 -9 -30 -20 -10 -11 -26 -20 -35 -20 -9 0
-20 -4 -25 -9 -15 -15 -125 -72 -125 -65 0 4 -6 2 -13 -4 -14 -12 -112 -49
-142 -54 -12 -2 -20 3 -20 11 0 8 -6 16 -14 19 -9 3 -11 0 -6 -9 5 -8 -3 -4
-16 8 -44 40 -66 28 -219 -125 -79 -78 -144 -142 -145 -142 -1 0 -43 -39 -93
-87 -111 -107 -141 -133 -153 -133 -14 0 -10 26 6 40 8 7 15 17 15 23 0 5 15
28 33 51 18 23 60 79 93 125 32 46 71 100 86 120 15 20 32 45 37 57 5 11 15
27 23 35 23 25 58 78 58 87 0 5 7 15 16 23 8 7 24 29 35 48 34 63 61 106 69
111 7 5 20 24 65 99 49 82 150 191 176 191 10 0 21 5 24 10 3 6 9 10 12 10 4
0 4 -3 0 -6z m-727 -818 c0 -14 -10 -41 -22 -61 -58 -94 -112 -171 -124 -178
-7 -4 -11 -14 -8 -22 4 -8 2 -15 -3 -15 -5 0 -34 -30 -64 -67 -30 -37 -64 -79
-76 -93 -12 -14 -30 -35 -40 -48 l-18 -23 -37 36 c-21 19 -38 39 -38 43 0 4
24 37 53 73 29 35 60 75 70 88 9 14 33 43 54 65 21 23 62 69 92 104 29 34 58
62 63 62 6 0 18 8 27 18 17 18 51 40 64 41 4 1 7 -10 7 -23z m-993 -473 c-42
-43 -97 -94 -122 -113 -25 -19 -64 -50 -86 -67 -23 -18 -46 -33 -52 -33 -7 0
4 12 23 27 19 15 58 49 87 76 28 27 55 49 60 50 4 1 7 7 5 12 -2 6 0 7 3 3 4
-4 39 22 78 57 39 36 74 65 76 65 3 0 -29 -35 -72 -77z m725 -1095 c-7 -7 -12
-8 -12 -2 0 14 12 26 19 19 2 -3 -1 -11 -7 -17z"/>
<path d="M639 1443 l-24 -28 28 24 c25 23 32 31 24 31 -2 0 -14 -12 -28 -27z"/>
<path d="M2805 3446 c-69 -22 -120 -53 -159 -97 -59 -65 -80 -120 -81 -214 0
-69 4 -88 29 -140 143 -291 565 -314 695 -36 57 122 23 278 -85 384 -39 40
-129 99 -154 102 -3 0 -9 3 -15 6 -20 12 -191 8 -230 -5z m273 -60 c113 -58
181 -157 190 -276 6 -89 -16 -154 -74 -219 -43 -47 -131 -102 -163 -100 -9 0
7 9 34 19 64 25 118 70 151 126 33 56 47 202 22 232 -8 9 -21 33 -28 52 -7 19
-19 42 -25 50 -7 8 -15 22 -18 31 -3 9 -20 25 -39 34 -133 71 -129 70 -223 70
-110 0 -144 -16 -227 -102 -39 -41 -60 -73 -68 -104 -23 -83 -29 -97 -23 -49
15 122 100 221 223 261 14 5 68 7 120 6 81 -3 103 -7 148 -31z m26 -127 c54
-48 76 -85 76 -129 0 -26 -6 -33 -35 -46 -46 -19 -139 -19 -155 1 -7 8 -17 54
-22 101 -8 78 -7 87 9 100 35 26 77 17 127 -27z m-507 -201 c-3 -7 -5 -2 -5
12 0 14 2 19 5 13 2 -7 2 -19 0 -25z m396 -275 c-7 -2 -21 -2 -30 0 -10 3 -4
5 12 5 17 0 24 -2 18 -5z"/>
<path d="M3201 3426 c-24 -28 14 -66 47 -46 14 8 12 9 -10 10 -22 0 -28 5 -28
21 0 17 5 20 25 17 13 -3 22 -1 19 3 -8 14 -40 11 -53 -5z"/>
<path d="M2507 3334 c-25 -26 19 -78 47 -55 23 19 14 56 -14 59 -14 2 -29 0
-33 -4z m49 -29 c1 -9 -6 -15 -17 -15 -10 0 -19 5 -19 10 0 6 7 10 16 10 9 0
12 5 8 13 -4 6 -3 8 1 4 5 -4 10 -14 11 -22z"/>
<path d="M3341 3206 c-9 -11 -10 -20 -1 -35 12 -23 44 -28 56 -9 4 6 3 8 -4 5
-16 -11 -42 3 -42 23 0 10 8 21 18 23 14 4 14 5 1 6 -9 0 -22 -5 -28 -13z"/>
<path d="M2476 3075 c-12 -33 18 -61 52 -48 15 6 14 8 -6 13 -25 5 -31 22 -11
29 8 2 9 -1 3 -10 -7 -12 -5 -12 9 0 9 7 14 17 11 22 -9 15 -51 10 -58 -6z"/>
<path d="M3321 2956 c-24 -29 27 -73 53 -46 8 10 8 11 -1 6 -18 -10 -43 4 -43
24 0 10 8 21 18 23 14 4 14 5 1 6 -9 0 -22 -5 -28 -13z"/>
<path d="M2626 2854 c-9 -8 -16 -19 -16 -24 0 -8 28 -40 35 -40 2 0 12 3 22 7
16 6 15 8 -6 13 -30 7 -39 28 -15 37 11 4 22 0 30 -12 8 -10 14 -14 14 -8 0
14 -28 43 -40 43 -5 0 -16 -7 -24 -16z"/>
<path d="M3144 2776 c-10 -27 1 -51 25 -54 13 -2 27 0 32 5 5 5 -3 9 -18 8
-36 0 -44 31 -11 44 l23 10 -23 0 c-12 1 -25 -5 -28 -13z"/>
<path d="M2880 2735 c-6 -8 -10 -22 -8 -32 3 -19 45 -30 59 -16 5 5 -3 9 -19
8 -20 0 -27 5 -27 20 0 14 6 20 22 19 12 0 20 3 17 8 -8 13 -30 9 -44 -7z"/>
<path d="M685 1939 c-4 -6 -5 -12 -2 -15 2 -3 7 2 10 11 7 17 1 20 -8 4z"/>
</g>
</svg>
